<svg xmlns="http://www.w3.org/2000/svg" version="1.1" xmlns:xlink="http://www.w3.org/1999/xlink" xmlns:svgjs="http://svgjs.dev/svgjs" width="2000" height="424" viewBox="0 0 2000 424"><g transform="matrix(1,0,0,1,-1.2121212121212466,0.03296926422126489)"><svg viewBox="0 0 396 84" data-background-color="#ffffff" preserveAspectRatio="xMidYMid meet" height="424" width="2000" xmlns="http://www.w3.org/2000/svg" xmlns:xlink="http://www.w3.org/1999/xlink"><g id="tight-bounds" transform="matrix(1,0,0,1,0.2400000000000091,-0.006531646685346004)"><svg viewBox="0 0 395.52 84.01306329337068" height="84.01306329337068" width="395.52"><g><svg viewBox="0 0 526.4448664428533 111.82303267833107" height="84.01306329337068" width="395.52"><g transform="matrix(1,0,0,1,130.92486644285327,15.454558061911172)"><svg viewBox="0 0 395.52 80.91391655450873" height="80.91391655450873" width="395.52"><g id="textblocktransform"><svg viewBox="0 0 395.52 80.91391655450873" height="80.91391655450873" width="395.52" id="textblock"><g><svg viewBox="0 0 395.52 80.91391655450873" height="80.91391655450873" width="395.52"><g transform="matrix(1,0,0,1,0,0)"><svg width="395.52" viewBox="3.33 -21.25 154.78 31.67" height="80.91391655450873" data-palette-color="#e75050"><path d="M7.08 10.42L3.33 10.42 3.33-20.83 6.81-20.83 6.81-18.09Q8.23-19.51 10.1-20.31 11.98-21.11 14.13-21.11L14.13-21.11Q17.01-21.11 19.36-19.67 21.7-18.23 23.11-15.8 24.51-13.37 24.51-10.42L24.51-10.42Q24.51-7.47 23.11-5.03 21.7-2.6 19.36-1.16 17.01 0.28 14.13 0.28L14.13 0.28Q12.08 0.28 10.28-0.45 8.47-1.18 7.08-2.47L7.08-2.47 7.08 10.42ZM13.65-3.13L13.65-3.13Q15.63-3.13 17.24-4.11 18.85-5.1 19.81-6.75 20.76-8.4 20.76-10.42L20.76-10.42Q20.76-12.43 19.81-14.08 18.85-15.73 17.24-16.72 15.63-17.71 13.65-17.71L13.65-17.71Q11.67-17.71 10.05-16.72 8.44-15.73 7.48-14.08 6.53-12.43 6.53-10.42L6.53-10.42Q6.53-8.4 7.48-6.75 8.44-5.1 10.05-4.11 11.67-3.13 13.65-3.13ZM39.65 0.42L39.65 0.42Q36.39 0.42 33.8-1.04 31.21-2.5 29.74-5.02 28.26-7.53 28.26-10.63L28.26-10.63Q28.26-13.58 29.68-15.99 31.11-18.4 33.52-19.83 35.94-21.25 38.85-21.25L38.85-21.25Q41.73-21.25 44.13-19.88 46.53-18.51 47.95-16.18 49.37-13.85 49.37-10.9L49.37-10.9 49.37-9.38 35.76-9.38Q34.86-9.38 33.92-9.44 32.98-9.51 32.08-9.65L32.08-9.65Q32.46-6.88 34.6-5 36.73-3.13 39.69-3.13L39.69-3.13Q41.66-3.13 43.37-4.03 45.07-4.93 46.11-6.42L46.11-6.42 47.15-2.15Q45.66-0.94 43.73-0.26 41.8 0.42 39.65 0.42ZM31.98-12.19L31.98-12.19Q33.85-12.5 35.76-12.5L35.76-12.5 42.67-12.5Q43.44-12.5 44.18-12.45 44.93-12.4 45.69-12.33L45.69-12.33Q45.21-14.76 43.26-16.34 41.32-17.92 38.85-17.92L38.85-17.92Q36.32-17.92 34.41-16.23 32.5-14.55 31.98-12.19ZM58.12 0L54.37 0 54.37-20.83 57.84-20.83 57.84-17.01Q58.95-18.85 60.79-19.95 62.63-21.04 65.17-21.04L65.17-21.04 66.11-17.29Q65.45-17.5 64.58-17.5L64.58-17.5Q61.66-17.5 59.89-15.64 58.12-13.78 58.12-10.35L58.12-10.35 58.12 0ZM75.37 0.42L75.37 0.42Q73.78 0.42 71.95-0.19 70.13-0.8 68.81-2.22L68.81-2.22 69.85-6.32Q70.83-4.69 72.35-3.73 73.88-2.78 75.62-2.78L75.62-2.78Q77.28-2.78 78.12-3.59 78.95-4.41 78.95-5.59L78.95-5.59Q78.95-6.94 78.07-7.57 77.18-8.19 76.49-8.44L76.49-8.44 73.67-9.51Q72.91-9.83 71.83-10.43 70.76-11.04 69.96-12.19 69.16-13.33 69.16-15.17L69.16-15.17Q69.16-16.84 69.96-18.23 70.76-19.62 72.21-20.43 73.67-21.25 75.65-21.25L75.65-21.25Q77.21-21.25 78.92-20.69 80.62-20.14 81.8-18.82L81.8-18.82 80.76-14.72Q79.92-16.25 78.5-17.15 77.08-18.06 75.55-18.06L75.55-18.06Q74.12-18.06 73.31-17.26 72.49-16.46 72.49-15.42L72.49-15.42Q72.49-14.58 73.05-13.92 73.6-13.26 74.71-12.85L74.71-12.85 77.53-11.77Q78.29-11.49 79.42-10.87 80.55-10.24 81.42-9.06 82.28-7.88 82.28-5.87L82.28-5.87Q82.28-3.06 80.32-1.32 78.36 0.42 75.37 0.42ZM97.21 0.42L97.21 0.42Q94.19 0.42 91.69-1.04 89.19-2.5 87.72-4.97 86.24-7.43 86.24-10.42L86.24-10.42Q86.24-13.44 87.72-15.89 89.19-18.33 91.69-19.79 94.19-21.25 97.21-21.25L97.21-21.25Q100.27-21.25 102.75-19.79 105.23-18.33 106.71-15.89 108.18-13.44 108.18-10.42L108.18-10.42Q108.18-7.43 106.71-4.97 105.23-2.5 102.75-1.04 100.27 0.42 97.21 0.42ZM97.21-3.13L97.21-3.13Q99.23-3.13 100.86-4.11 102.49-5.1 103.46-6.75 104.43-8.4 104.43-10.42L104.43-10.42Q104.43-12.43 103.46-14.08 102.49-15.73 100.86-16.72 99.23-17.71 97.21-17.71L97.21-17.71Q95.2-17.71 93.57-16.72 91.93-15.73 90.96-14.08 89.99-12.43 89.99-10.42L89.99-10.42Q89.99-8.4 90.96-6.75 91.93-5.1 93.57-4.11 95.2-3.13 97.21-3.13ZM117.14 0L113.39 0 113.39-20.83 116.86-20.83 116.86-17.47Q118.01-19.31 119.83-20.28 121.65-21.25 123.77-21.25L123.77-21.25Q125.99-21.25 127.89-20.16 129.78-19.06 130.96-17 132.14-14.93 132.14-11.98L132.14-11.98 132.14 0 128.39 0 128.39-11.46Q128.39-13.92 126.91-15.82 125.44-17.71 122.77-17.71L122.77-17.71Q120.58-17.71 118.86-16.13 117.14-14.55 117.14-11.56L117.14-11.56 117.14 0ZM147.31 0.28L147.31 0.28Q144.46 0.28 142.1-1.16 139.74-2.6 138.34-5.03 136.93-7.47 136.93-10.42L136.93-10.42Q136.93-13.37 138.34-15.8 139.74-18.23 142.1-19.67 144.46-21.11 147.31-21.11L147.31-21.11Q149.46-21.11 151.36-20.31 153.25-19.51 154.64-18.09L154.64-18.09 154.64-20.83 158.11-20.83 158.11 0 154.64 0 154.64-2.74Q153.25-1.35 151.36-0.54 149.46 0.28 147.31 0.28ZM147.8-3.13L147.8-3.13Q149.78-3.13 151.39-4.11 153.01-5.1 153.96-6.75 154.92-8.4 154.92-10.42L154.92-10.42Q154.92-12.43 153.96-14.08 153.01-15.73 151.39-16.72 149.78-17.71 147.8-17.71L147.8-17.71Q145.82-17.71 144.2-16.72 142.59-15.73 141.63-14.08 140.68-12.43 140.68-10.42L140.68-10.42Q140.68-8.4 141.63-6.75 142.59-5.1 144.2-4.11 145.82-3.13 147.8-3.13Z" opacity="1" transform="matrix(1,0,0,1,0,0)" fill="#e75050" class="wordmark-text-0" data-fill-palette-color="primary" id="text-0"></path></svg></g></svg></g></svg></g></svg></g><g><svg viewBox="0 0 111.82303267833107 111.82303267833107" height="111.82303267833107" width="111.82303267833107"><g data-palette-color="#feb9b9"><rect width="30.564962265410497" height="111.82303267833107" fill="#feb9b9" stroke="transparent" data-fill-palette-color="accent" x="0" fill-opacity="0.5"></rect><rect width="30.564962265410497" height="111.82303267833107" fill="#feb9b9" stroke="transparent" data-fill-palette-color="accent" x="37.27434422611036" fill-opacity="0.75"></rect><rect width="30.564962265410497" height="111.82303267833107" fill="#feb9b9" stroke="transparent" data-fill-palette-color="accent" x="74.54868845222072" fill-opacity="1"></rect></g></svg></g></svg></g><defs></defs></svg><rect width="395.52" height="84.01306329337068" fill="none" stroke="none" visibility="hidden"></rect></g></svg></g></svg>